<svg width="208" height="29" viewBox="0 0 208 29" fill="none" xmlns="http://www.w3.org/2000/svg">
<path d="M36.244 28.204C36.292 28.228 36.316 28.276 36.316 28.348C36.268 28.516 36.172 28.552 36.028 28.456C33.94 26.992 32.896 24.844 32.896 22.012C32.896 20.836 33.124 19.588 33.58 18.268C34.06 16.924 34.9 15.316 36.1 13.444C37.3 11.572 38.464 9.952 39.592 8.584C40.72 7.216 41.8 5.944 42.832 4.768C43.888 3.568 44.44 2.92 44.488 2.824C44.776 2.392 44.968 2.44 45.064 2.968C45.088 3.136 45.1 3.328 45.1 3.544C45.1 3.76 45.04 3.952 44.92 4.12C43.432 5.944 41.992 8.008 40.6 10.312C38.272 14.2 36.604 17.74 35.596 20.932C35.212 22.204 35.02 23.524 35.02 24.892C35.02 26.26 35.428 27.364 36.244 28.204ZM6.292 15.604C10.228 13.972 14.968 13.156 20.512 13.156C23.248 13.156 25.984 13.588 28.72 14.452C29.368 13.78 30.328 12.784 31.6 11.464C32.872 10.12 33.88 9.064 34.624 8.296C36.784 6.064 38.548 4.42 39.916 3.364C42.22 1.564 44.332 0.663998 46.252 0.663998C47.116 0.663998 47.908 0.807998 48.628 1.096C49.348 1.36 49.78 1.576 49.924 1.744C50.068 1.888 50.14 1.972 50.14 1.996C50.14 2.02 50.116 2.068 50.068 2.14C50.02 2.188 49.948 2.152 49.852 2.032C49.396 1.6 48.508 1.384 47.188 1.384C44.956 1.384 42.604 2.356 40.132 4.3C38.356 5.74 36.88 7.06 35.704 8.26C34.528 9.436 33.292 10.696 31.996 12.04C30.724 13.36 29.86 14.248 29.404 14.704C31.804 15.592 33.112 16.756 33.328 18.196C33.352 18.34 33.34 18.436 33.292 18.484C33.268 18.532 33.22 18.532 33.148 18.484C33.1 18.436 33.064 18.364 33.04 18.268C32.848 17.812 32.176 17.452 31.024 17.188C29.992 16.948 28.804 16.768 27.46 16.648C22.588 21.352 18.28 24.34 14.536 25.612C12.496 26.332 10.564 26.692 8.74 26.692C5.476 26.692 3.208 26.2 1.936 25.216C0.688 24.256 0.064 23.188 0.064 22.012C0.064 21.556 0.148 21.088 0.316 20.608C1.036 18.64 3.028 16.972 6.292 15.604ZM24.328 16.504C21.136 16.504 17.776 16.84 14.248 17.512C8.824 18.472 5.296 19.9 3.664 21.796C3.16 22.396 2.908 22.96 2.908 23.488C2.908 24.112 3.244 24.676 3.916 25.18C4.708 25.78 6.076 26.08 8.02 26.08C9.988 26.08 12.112 25.756 14.392 25.108C17.8 24.052 21.856 21.208 26.56 16.576C25.816 16.528 25.072 16.504 24.328 16.504ZM47.7378 16.936C48.0738 16.552 48.2418 16.252 48.2418 16.036C48.2418 15.82 48.0138 15.712 47.5578 15.712C47.1258 15.712 46.4298 16.132 45.4698 16.972C44.5818 17.74 43.5018 19.024 42.2298 20.824C40.9818 22.624 40.0698 23.848 39.4938 24.496C38.9418 25.12 38.4498 25.432 38.0178 25.432C37.9698 25.432 37.9218 25.432 37.8738 25.432C37.2498 25.432 36.6378 25.18 36.0378 24.676C36.1818 24.46 36.5298 23.992 37.0818 23.272C38.3058 21.784 39.3738 20.344 40.2858 18.952C39.2538 19.984 38.3778 20.788 37.6578 21.364C37.4178 21.556 37.2858 21.568 37.2618 21.4C37.2138 21.232 37.2618 21.088 37.4058 20.968C37.5498 20.824 37.7898 20.608 38.1258 20.32C38.4618 20.008 38.6778 19.804 38.7738 19.708C38.8938 19.612 39.0978 19.432 39.3858 19.168C39.6978 18.88 39.9258 18.652 40.0698 18.484C40.7418 17.692 41.2338 17.02 41.5458 16.468C41.6658 16.18 41.7138 15.904 41.6898 15.64C41.6898 15.352 41.6298 15.172 41.5098 15.1C41.4138 15.004 41.3778 14.896 41.4018 14.776C41.4018 14.584 41.4978 14.488 41.6898 14.488C41.7858 14.488 41.8938 14.512 42.0138 14.56C42.7578 14.896 43.1298 15.568 43.1298 16.576C43.1298 17.56 42.9138 18.616 42.4818 19.744C43.4178 18.52 44.1258 17.644 44.6058 17.116C45.8538 15.724 47.0778 15.028 48.2778 15.028C49.4538 15.028 50.1498 15.532 50.3658 16.54C50.3898 16.684 50.4018 16.912 50.4018 17.224C50.4018 17.512 50.2818 17.908 50.0418 18.412C49.8258 18.916 49.2978 19.744 48.4578 20.896C47.6178 22.048 47.1258 22.78 46.9818 23.092C46.8618 23.38 46.8258 23.596 46.8738 23.74C46.9218 23.884 47.0298 23.968 47.1978 23.992C47.4858 24.04 47.9778 23.848 48.6738 23.416C49.6578 22.72 50.9298 21.652 52.4898 20.212C52.7538 19.948 52.8858 19.972 52.8858 20.284C52.8858 20.404 52.8258 20.524 52.7058 20.644C50.3778 22.804 48.6498 24.148 47.5218 24.676C46.2018 25.348 45.1698 25.456 44.4258 25C43.9698 24.712 43.7418 24.316 43.7418 23.812C43.7418 23.284 43.8378 22.756 44.0298 22.228C44.4618 21.004 45.6978 19.24 47.7378 16.936ZM62.7338 23.344C62.2778 24.592 62.0498 25.612 62.0498 26.404C62.0498 27.196 62.2178 27.796 62.5538 28.204C62.6258 28.3 62.6378 28.36 62.5898 28.384C62.5418 28.432 62.5058 28.456 62.4818 28.456C62.4578 28.456 62.4218 28.444 62.3738 28.42C61.6058 27.796 61.2218 26.86 61.2218 25.612C61.2218 24.388 61.4738 22.972 61.9778 21.364C60.9938 22.636 60.0218 23.68 59.0618 24.496C57.9098 25.456 56.7338 25.936 55.5338 25.936C54.7658 25.936 54.0458 25.672 53.3738 25.144C52.7018 24.64 52.3658 23.8 52.3658 22.624C52.3418 22.048 52.4498 21.388 52.6898 20.644C52.2098 21.076 51.9098 21.34 51.7898 21.436C51.6458 21.532 51.5498 21.532 51.5018 21.436C51.4538 21.34 51.4298 21.256 51.4298 21.184C51.4298 21.088 51.5138 20.98 51.6818 20.86C51.8258 20.716 52.6538 19.828 54.1658 18.196C55.0538 17.212 56.1098 16.444 57.3338 15.892C58.5578 15.34 59.7218 15.064 60.8258 15.064C61.8338 15.064 62.5658 15.244 63.0218 15.604C63.5018 15.94 63.7418 16.372 63.7418 16.9C64.6058 15.076 65.5298 13.348 66.5138 11.716C67.5218 10.06 68.3018 8.92 68.8538 8.296C69.4538 7.624 70.2098 7.288 71.1218 7.288C72.0338 7.288 72.7778 7.54 73.3538 8.044C72.8498 8.356 71.8658 9.388 70.4018 11.14C68.9378 12.892 67.5098 14.776 66.1178 16.792C64.7258 18.784 63.5978 20.968 62.7338 23.344ZM63.0218 16.54C63.0218 16.06 62.7218 15.82 62.1218 15.82C61.8098 15.82 61.4018 15.916 60.8978 16.108C59.7698 16.54 58.6538 17.38 57.5498 18.628C56.1818 20.188 55.4978 21.676 55.4978 23.092C55.4978 23.932 55.7738 24.436 56.3258 24.604C56.4458 24.652 56.5658 24.676 56.6858 24.676C57.6698 24.676 59.1338 23.692 61.0778 21.724C61.6058 21.22 62.0498 20.68 62.4098 20.104C62.6018 19.552 62.8538 18.916 63.1658 18.196C62.9498 18.34 62.7698 18.364 62.6258 18.268C62.5058 18.148 62.5418 17.908 62.7338 17.548C62.9258 17.164 63.0218 16.828 63.0218 16.54ZM76.3618 17.8C75.3058 19.024 74.4418 20.152 73.7698 21.184C73.1218 22.192 72.7978 22.912 72.7978 23.344C72.7978 23.752 73.0378 23.956 73.5178 23.956C74.0218 23.956 75.0298 23.464 76.5418 22.48C78.0778 21.496 79.4938 20.392 80.7898 19.168C80.9098 19.048 81.0178 19 81.1138 19.024C81.2098 19.048 81.2578 19.108 81.2578 19.204C81.2578 19.3 81.2098 19.408 81.1138 19.528C78.0178 22.36 75.6538 24.136 74.0218 24.856C73.3018 25.144 72.7858 25.288 72.4738 25.288C71.3218 25.288 70.5298 25.096 70.0978 24.712C69.6898 24.328 69.4858 23.908 69.4858 23.452C69.4858 22.54 69.6658 21.844 70.0258 21.364C71.2018 19.708 72.1378 18.304 72.8338 17.152C73.0498 16.816 73.0018 16.588 72.6898 16.468C72.4018 16.324 72.0298 16.252 71.5738 16.252C71.1418 16.252 70.9138 16.24 70.8898 16.216C69.2818 18.376 67.6858 20.08 66.1018 21.328C65.9098 21.496 65.8018 21.496 65.7778 21.328C65.7778 21.136 65.9098 20.908 66.1738 20.644C67.8538 19.204 69.2338 17.68 70.3138 16.072C70.0978 15.928 69.9898 15.736 69.9898 15.496C69.9898 15.232 70.0018 14.92 70.0258 14.56C70.0738 14.2 70.2658 13.72 70.6018 13.12C71.1778 12.112 71.7778 11.608 72.4018 11.608C72.9298 11.608 73.1938 11.896 73.1938 12.472C73.1938 13.264 72.8218 14.128 72.0778 15.064C71.7178 15.496 71.3818 15.808 71.0698 16C71.9578 15.712 73.2538 15.568 74.9578 15.568C75.7978 15.568 76.3978 15.88 76.7578 16.504C76.8058 16.6 76.8298 16.744 76.8298 16.936C76.8298 17.128 76.6738 17.416 76.3618 17.8ZM87.8576 19.384C89.1296 18.688 89.7656 17.98 89.7656 17.26C89.7656 16.54 89.3336 16.18 88.4696 16.18C88.0616 16.18 87.6296 16.288 87.1736 16.504C86.1656 16.96 85.1936 17.752 84.2576 18.88C83.1056 20.272 82.5296 21.568 82.5296 22.768C82.5296 23.224 82.6496 23.656 82.8896 24.064C83.1536 24.448 83.6096 24.64 84.2576 24.64C85.3856 24.64 86.8136 24.052 88.5416 22.876C90.2696 21.676 91.7576 20.476 93.0056 19.276C93.2936 18.988 93.4376 18.976 93.4376 19.24C93.4376 19.408 93.3656 19.552 93.2216 19.672C92.3336 20.488 91.7336 21.04 91.4216 21.328C91.1336 21.592 90.5456 22.084 89.6576 22.804C88.7696 23.5 88.0496 23.992 87.4976 24.28C85.7936 25.168 84.3416 25.612 83.1416 25.612C81.9656 25.612 81.0296 25.348 80.3336 24.82C79.6616 24.268 79.3256 23.512 79.3256 22.552C79.3256 20.512 80.2376 18.76 82.0616 17.296C83.8856 15.808 85.7936 15.064 87.7856 15.064C89.1296 15.064 90.0296 15.352 90.4856 15.928C90.6776 16.216 90.7736 16.528 90.7736 16.864C90.7736 17.176 90.6656 17.524 90.4496 17.908C90.0176 18.652 89.2016 19.312 88.0016 19.888C86.8256 20.44 85.7096 20.716 84.6536 20.716C84.2456 20.716 84.0176 20.68 83.9696 20.608C83.9456 20.536 83.9816 20.488 84.0776 20.464C84.1736 20.416 84.3056 20.392 84.4736 20.392C85.4336 20.392 86.5616 20.056 87.8576 19.384ZM104.986 19.456C104.722 19.768 104.446 20.104 104.158 20.464C103.894 20.824 103.546 21.316 103.114 21.94C102.706 22.564 102.502 23.092 102.502 23.524C102.502 23.956 102.682 24.172 103.042 24.172C103.426 24.172 104.038 23.944 104.878 23.488C106.558 22.528 108.418 21.088 110.458 19.168C110.698 18.928 110.854 18.892 110.926 19.06C110.926 19.084 110.926 19.132 110.926 19.204C110.926 19.276 110.878 19.36 110.782 19.456C106.654 23.344 103.654 25.288 101.782 25.288C101.23 25.288 100.762 25.108 100.378 24.748C100.018 24.364 99.8383 23.92 99.8383 23.416C99.8383 22.912 100.054 22.144 100.486 21.112C99.4063 22.456 98.2423 23.5 96.9943 24.244C95.7703 24.964 94.8103 25.324 94.1143 25.324C93.4183 25.324 92.8183 25.12 92.3143 24.712C91.8343 24.28 91.5943 23.752 91.5943 23.128C91.5943 21.352 92.3863 19.612 93.9703 17.908C95.1703 16.636 96.6583 15.736 98.4343 15.208C99.2263 14.944 99.9943 14.812 100.738 14.812C101.506 14.812 102.238 15.028 102.934 15.46C103.654 15.868 104.11 16.36 104.302 16.936C105.022 16.936 105.538 17.2 105.85 17.728C105.898 17.8 105.922 17.92 105.922 18.088C105.922 18.256 105.826 18.448 105.634 18.664C105.466 18.88 105.25 19.144 104.986 19.456ZM102.358 15.892C101.854 15.892 101.254 16.048 100.558 16.36C99.3343 16.888 98.1703 17.8 97.0663 19.096C95.3143 21.16 94.4383 22.672 94.4383 23.632C94.4383 24.136 94.6423 24.388 95.0503 24.388C95.3863 24.388 95.9383 24.172 96.7063 23.74C97.4983 23.308 98.5303 22.456 99.8023 21.184C99.8743 21.112 100.15 20.848 100.63 20.392C101.11 19.936 101.518 19.54 101.854 19.204C102.982 18.028 103.546 17.188 103.546 16.684C103.546 16.156 103.15 15.892 102.358 15.892ZM107.053 23.02C107.029 22.996 107.017 22.96 107.017 22.912C107.017 22.864 107.065 22.84 107.161 22.84C107.233 22.84 107.281 22.888 107.305 22.984C107.737 23.944 108.445 24.424 109.429 24.424C110.653 24.424 111.721 23.824 112.633 22.624C113.305 21.736 113.893 20.812 114.397 19.852C114.925 18.868 115.357 18.088 115.693 17.512C116.053 16.936 116.593 16.288 117.313 15.568C118.057 14.848 118.729 14.404 119.329 14.236C119.185 14.164 118.945 14.128 118.609 14.128C118.273 14.128 117.637 14.38 116.701 14.884C115.789 15.364 114.877 15.988 113.965 16.756C113.053 17.5 112.069 18.352 111.013 19.312C109.957 20.272 109.321 20.836 109.105 21.004C108.889 21.172 108.757 21.172 108.709 21.004C108.661 20.836 108.721 20.68 108.889 20.536C109.513 20.008 110.413 19.192 111.589 18.088C112.765 16.96 113.653 16.144 114.253 15.64C114.877 15.112 115.573 14.668 116.341 14.308C117.109 13.924 117.685 13.732 118.069 13.732C119.029 13.732 119.617 13.9 119.833 14.236C119.209 14.5 118.693 15.196 118.285 16.324C117.901 17.452 117.457 18.76 116.953 20.248C116.473 21.736 115.861 22.9 115.117 23.74C115.741 23.5 116.701 22.948 117.997 22.084C119.317 21.196 120.481 20.236 121.489 19.204C121.705 19.012 121.861 18.988 121.957 19.132C121.957 19.18 121.957 19.24 121.957 19.312C121.957 19.36 121.729 19.612 121.273 20.068C120.817 20.524 120.253 21.04 119.581 21.616C118.933 22.168 118.117 22.792 117.133 23.488C115.093 24.928 113.041 25.648 110.977 25.648C108.937 25.648 107.629 24.772 107.053 23.02ZM157.318 4.264C157.126 3.952 156.79 3.796 156.31 3.796C155.83 3.796 155.374 3.856 154.942 3.976C154.534 4.096 154.042 4.264 153.466 4.48C152.53 4.864 151.774 5.224 151.198 5.56C149.038 6.712 147.022 8.068 145.15 9.628C143.278 11.164 142.294 12.316 142.198 13.084C142.15 13.684 142.474 14.176 143.17 14.56C143.77 14.92 144.466 15.268 145.258 15.604C146.05 15.916 146.626 16.156 146.986 16.324C148.906 17.284 149.866 18.556 149.866 20.14C149.866 20.836 149.662 21.508 149.254 22.156C148.606 23.164 147.622 24.004 146.302 24.676C145.006 25.324 143.614 25.78 142.126 26.044C140.59 26.308 139.318 26.44 138.31 26.44C136.486 26.44 134.662 26.044 132.838 25.252C131.014 24.484 129.886 23.272 129.454 21.616C130.342 22.408 131.566 22.972 133.126 23.308C134.686 23.644 136.174 23.812 137.59 23.812C139.702 23.788 141.262 23.62 142.27 23.308C143.302 22.996 144.19 22.636 144.934 22.228C145.702 21.796 146.398 21.304 147.022 20.752C147.67 20.176 147.994 19.552 147.994 18.88C147.994 18.184 147.538 17.56 146.626 17.008C146.554 16.96 145.822 16.66 144.43 16.108C143.062 15.556 142.006 14.944 141.262 14.272C140.542 13.6 140.182 12.832 140.182 11.968C140.182 10.336 141.19 8.68 143.206 7C145.222 5.296 147.418 3.976 149.794 3.04C152.194 2.104 154.234 1.636 155.914 1.636C157.09 1.636 158.002 1.852 158.65 2.284C159.298 2.692 159.622 3.268 159.622 4.012C159.622 4.108 159.622 4.216 159.622 4.336C159.55 5.08 158.242 6.628 155.698 8.98C154.762 9.844 153.934 10.816 153.214 11.896C152.518 12.952 152.17 13.888 152.17 14.704C152.17 14.776 152.17 14.848 152.17 14.92C151.426 14.344 151.054 13.576 151.054 12.616C151.054 11.752 151.426 10.696 152.17 9.448C153.25 7.624 154.966 5.896 157.318 4.264ZM164.225 19.456C163.961 19.768 163.685 20.104 163.397 20.464C163.133 20.824 162.785 21.316 162.353 21.94C161.945 22.564 161.741 23.092 161.741 23.524C161.741 23.956 161.921 24.172 162.281 24.172C162.665 24.172 163.277 23.944 164.117 23.488C165.797 22.528 167.657 21.088 169.697 19.168C169.937 18.928 170.093 18.892 170.165 19.06C170.165 19.084 170.165 19.132 170.165 19.204C170.165 19.276 170.117 19.36 170.021 19.456C165.893 23.344 162.893 25.288 161.021 25.288C160.469 25.288 160.001 25.108 159.617 24.748C159.257 24.364 159.077 23.92 159.077 23.416C159.077 22.912 159.293 22.144 159.725 21.112C158.645 22.456 157.481 23.5 156.233 24.244C155.009 24.964 154.049 25.324 153.353 25.324C152.657 25.324 152.057 25.12 151.553 24.712C151.073 24.28 150.833 23.752 150.833 23.128C150.833 21.352 151.625 19.612 153.209 17.908C154.409 16.636 155.897 15.736 157.673 15.208C158.465 14.944 159.233 14.812 159.977 14.812C160.745 14.812 161.477 15.028 162.173 15.46C162.893 15.868 163.349 16.36 163.541 16.936C164.261 16.936 164.777 17.2 165.089 17.728C165.137 17.8 165.161 17.92 165.161 18.088C165.161 18.256 165.065 18.448 164.873 18.664C164.705 18.88 164.489 19.144 164.225 19.456ZM161.597 15.892C161.093 15.892 160.493 16.048 159.797 16.36C158.573 16.888 157.409 17.8 156.305 19.096C154.553 21.16 153.677 22.672 153.677 23.632C153.677 24.136 153.881 24.388 154.289 24.388C154.625 24.388 155.177 24.172 155.945 23.74C156.737 23.308 157.769 22.456 159.041 21.184C159.113 21.112 159.389 20.848 159.869 20.392C160.349 19.936 160.757 19.54 161.093 19.204C162.221 18.028 162.785 17.188 162.785 16.684C162.785 16.156 162.389 15.892 161.597 15.892ZM178.28 16.216C178.28 15.904 178.052 15.748 177.596 15.748C176.78 15.748 175.784 16.324 174.608 17.476C174.32 17.764 173.792 18.364 173.024 19.276C172.28 20.188 171.548 21.232 170.828 22.408L169.928 24.388L170.036 24.028C169.988 24.124 169.94 24.268 169.892 24.46C169.772 24.748 169.424 24.988 168.848 25.18C168.728 25.228 168.62 25.252 168.524 25.252C168.284 25.252 168.26 25.072 168.452 24.712C168.548 24.472 168.884 23.62 169.46 22.156C170.036 20.668 170.504 19.48 170.864 18.592C169.928 19.624 169.052 20.464 168.236 21.112C167.996 21.304 167.828 21.328 167.732 21.184C167.708 21.16 167.696 21.112 167.696 21.04C167.696 20.968 167.804 20.836 168.02 20.644C169.484 19.372 170.636 18.196 171.476 17.116C172.1 15.652 173.24 13.624 174.896 11.032C176.576 8.416 178.292 6.256 180.044 4.552C181.22 3.376 182.492 2.584 183.86 2.176C184.484 1.984 185.06 1.888 185.588 1.888C186.14 1.888 186.644 2.044 187.1 2.356C187.58 2.644 187.82 3.196 187.82 4.012C187.82 5.092 187.46 6.184 186.74 7.288C186.02 8.392 184.748 9.628 182.924 10.996C181.1 12.34 179.408 13.348 177.848 14.02C177.56 14.14 177.392 14.128 177.344 13.984C177.296 13.816 177.416 13.672 177.704 13.552C179.096 12.928 180.656 11.944 182.384 10.6C184.136 9.256 185.3 8.116 185.876 7.18C186.476 6.22 186.776 5.452 186.776 4.876C186.776 4.276 186.524 3.976 186.02 3.976C185.444 3.976 184.532 4.456 183.284 5.416C181.436 6.904 179.492 8.98 177.452 11.644C175.436 14.308 173.696 16.996 172.232 19.708C172.904 18.748 173.516 17.956 174.068 17.332C175.412 15.82 176.72 15.064 177.992 15.064C179.192 15.064 179.9 15.592 180.116 16.648C180.14 16.792 180.152 16.996 180.152 17.26C180.152 17.524 180.056 17.92 179.864 18.448C179.696 18.952 179.192 19.9 178.352 21.292C177.536 22.66 177.128 23.488 177.128 23.776C177.128 24.064 177.224 24.208 177.416 24.208C177.68 24.208 178.076 24.04 178.604 23.704C179.948 22.864 181.7 21.448 183.86 19.456C184.148 19.168 184.28 19.12 184.256 19.312C184.256 19.504 184.184 19.684 184.04 19.852C182.264 21.676 180.428 23.2 178.532 24.424C177.644 25 176.84 25.288 176.12 25.288C175.928 25.288 175.748 25.264 175.58 25.216C174.644 25.024 174.176 24.508 174.176 23.668C174.176 22.804 174.512 21.844 175.184 20.788C175.304 20.62 175.748 20.056 176.516 19.096C177.692 17.656 178.28 16.696 178.28 16.216ZM185.529 23.524C185.529 24.172 185.853 24.496 186.501 24.496C186.885 24.496 187.485 24.34 188.301 24.028C189.141 23.716 190.221 23.032 191.541 21.976C192.861 20.92 193.749 20.164 194.205 19.708C194.661 19.228 194.937 19 195.033 19.024C195.129 19.024 195.165 19.096 195.141 19.24C195.117 19.36 195.057 19.468 194.961 19.564C192.921 21.652 191.229 23.152 189.885 24.064C188.541 24.976 187.293 25.432 186.141 25.432C185.157 25.432 184.473 25.204 184.089 24.748C183.705 24.292 183.513 23.764 183.513 23.164C183.513 22.084 183.897 20.788 184.665 19.276C183.273 20.764 182.577 21.244 182.577 20.716C182.577 20.62 182.649 20.512 182.793 20.392C183.921 19.48 185.133 18.16 186.429 16.432C188.805 13.336 190.665 10.612 192.009 8.26C192.249 7.804 192.369 7.468 192.369 7.252C192.369 6.748 192.093 6.652 191.541 6.964C190.917 7.276 190.581 7.396 190.533 7.324C190.485 7.252 190.521 7.156 190.641 7.036C191.217 6.604 192.009 6.196 193.017 5.812C194.025 5.428 194.853 5.224 195.501 5.2C196.509 5.2 197.013 5.512 197.013 6.136C197.013 6.496 196.833 6.976 196.473 7.576C196.137 8.176 195.141 9.376 193.485 11.176C191.853 12.952 190.857 14.068 190.497 14.524C188.025 17.764 186.453 20.344 185.781 22.264C185.613 22.768 185.529 23.188 185.529 23.524ZM201.799 19.384C203.071 18.688 203.707 17.98 203.707 17.26C203.707 16.54 203.275 16.18 202.411 16.18C202.003 16.18 201.571 16.288 201.115 16.504C200.107 16.96 199.135 17.752 198.199 18.88C197.047 20.272 196.471 21.568 196.471 22.768C196.471 23.224 196.591 23.656 196.831 24.064C197.095 24.448 197.551 24.64 198.199 24.64C199.327 24.64 200.755 24.052 202.483 22.876C204.211 21.676 205.699 20.476 206.947 19.276C207.235 18.988 207.379 18.976 207.379 19.24C207.379 19.408 207.307 19.552 207.163 19.672C206.275 20.488 205.675 21.04 205.363 21.328C205.075 21.592 204.487 22.084 203.599 22.804C202.711 23.5 201.991 23.992 201.439 24.28C199.735 25.168 198.283 25.612 197.083 25.612C195.907 25.612 194.971 25.348 194.275 24.82C193.603 24.268 193.267 23.512 193.267 22.552C193.267 20.512 194.179 18.76 196.003 17.296C197.827 15.808 199.735 15.064 201.727 15.064C203.071 15.064 203.971 15.352 204.427 15.928C204.619 16.216 204.715 16.528 204.715 16.864C204.715 17.176 204.607 17.524 204.391 17.908C203.959 18.652 203.143 19.312 201.943 19.888C200.767 20.44 199.651 20.716 198.595 20.716C198.187 20.716 197.959 20.68 197.911 20.608C197.887 20.536 197.923 20.488 198.019 20.464C198.115 20.416 198.247 20.392 198.415 20.392C199.375 20.392 200.503 20.056 201.799 19.384Z" fill="#984376"/>
</svg>
